# xmcd CD database file
#
# Track frame offsets:
#	150
#	17375
#	27629
#	47133
#	61020
#	73486
#	88783
#	103638
#	111481
#	128718
#	138692
#	151707
#	177201
#	190441
#	203481
#	224169
#	237999
#	250049
#	260986
#	271641
#	283048
#	302064
#
# Disc length: 4173 seconds
#
# Revision: 1
# Processed by: cddbd v1.5.2PL0 Copyright (c) Steve Scherf et al.
# Submitted via: CDex 1.51
#
DISCID=4d104b16
DTITLE=Various Artist - Mo' Mod Jazz
DYEAR=1900
DGENRE=Jazz
TTITLE0=Wade In The Water - Johnny Griffin Orchestra
TTITLE1=Mission Impossible - Johnny Gilliam
TTITLE2=Money (That's What I Want) - Freddie Roach
TTITLE3=Soul Jam - Booker T and The MGs
TTITLE4=Got My Mojo Working - Billy Hawks
TTITLE5=(I Got A) Stomach Ache - Junior Wells
TTITLE6=Got To Move Your Baby - Lightnin' Hopkins
TTITLE7=Evesight To The Blind - Mose Allison
TTITLE8=Georgia On My Mind - Pucho and His Latin Soul Brothers
TTITLE9=Get The Money - Mongo Santamaria Orchestra
TTITLE10=Cholo - Brown Brothers Of Soul
TTITLE11=Blue Vibes - Johnny Lytle Trio
TTITLE12=Smokey Joe's La La - Googie Rene Combo
TTITLE13=Spider Man - Freddie McCoy
TTITLE14=Livin' Soul - Richard "Groove" Holmes
TTITLE15=Right On - Boogaloo Joe Jones
TTITLE16=My Train - Merl Saunders
TTITLE17=You Can't Sit Down - Chris Columbo
TTITLE18=Bad Luck Soul - B.B. King
TTITLE19=You Win, I Lose - Little Johnny Taylor
TTITLE20=Brother Ray - Willis Jackson
TTITLE21=Senor Blues - Mark Murphy
EXTD=
EXTT0=
EXTT1=
EXTT2=
EXTT3=
EXTT4=
EXTT5=
EXTT6=
EXTT7=
EXTT8=
EXTT9=
EXTT10=
EXTT11=
EXTT12=
EXTT13=
EXTT14=
EXTT15=
EXTT16=
EXTT17=
EXTT18=
EXTT19=
EXTT20=
EXTT21=
PLAYORDER=
